<?xml version="1.0" encoding="utf-8"?>
<!-- Generator: Adobe Illustrator 28.1.0, SVG Export Plug-In . SVG Version: 6.00 Build 0)  -->
<svg version="1.1" id="Layer_1" xmlns="http://www.w3.org/2000/svg" xmlns:xlink="http://www.w3.org/1999/xlink" x="0px" y="0px"
	 viewBox="0 0 845.2 140.1" style="enable-background:new 0 0 845.2 140.1;" xml:space="preserve">
<style type="text/css">
	.st0{fill:#FFFFFF;}
</style>
<path class="st0" d="M0,2.3h54L70.8,72l4.1,19.3l4-19.3L95.8,2.3h54v135.4h-34.6V49.9L110.3,70l-18,67.7H56.7L38.7,70l-4.8-20.1
	v87.8H0V2.3L0,2.3z M291,82.2c0,36.2-23.8,57.8-63.6,57.8s-63.6-21.5-63.6-57.8V57.8c0-36.2,23.8-57.8,63.6-57.8S291,21.5,291,57.8
	V82.2L291,82.2z M227.3,30c-16.4,0-26.5,9.3-26.5,24.6v31c0,15.1,10.1,24.6,26.5,24.6s26.5-9.5,26.5-24.6v-31
	C253.8,39.3,243.8,30,227.3,30z M431.2,82.2c0,36.2-23.8,57.8-63.6,57.8S304,118.5,304,82.2V57.8C304,21.6,327.8,0,367.6,0
	s63.6,21.5,63.6,57.8V82.2L431.2,82.2z M367.6,30c-16.4,0-26.5,9.3-26.5,24.6v31c0,15.1,10.1,24.6,26.5,24.6s26.5-9.5,26.5-24.6v-31
	C394.1,39.3,384,30,367.6,30z M565.1,78.3c0,37.5-24,59.4-65.6,59.4H445V2.3h54.5c41.6,0,65.6,21.9,65.6,59.4V78.3L565.1,78.3z
	 M499.5,32.7h-17.8v74.7h17.8c19,0,28.4-9.7,28.4-28.4V61.1C527.9,42.2,518.4,32.7,499.5,32.7L499.5,32.7z M603.2,78.2L553.8,2.3
	h41.6l26.1,42.6l25.9-42.6h39.8L638,78.2v59.6h-34.8V78.2L603.2,78.2z M691,2.3h36.8v33.8l-23.6,31.7h-7.9L706.8,39H691V2.3L691,2.3
	z M845.1,95.6c0,28.1-20.7,44.5-56.1,44.5s-55.9-16.1-55.9-42.9v-6h35.8v5.2c0,9.5,6,13.5,20.1,13.5c13,0,19.7-3.9,19.7-11.2
	c0-8.3-5.6-10.1-13.9-11.2l-24.4-3.7c-15.9-2.3-36.6-10.4-36.6-39.7S754.2,0,789.1,0s54.5,15.9,54.5,42.6v5.2h-35.8v-4.4
	c0-9.3-5.6-13.2-18.8-13.2c-12.4,0-18.8,3.7-18.8,10.8c0,7.9,5.4,9.7,13.2,10.8l24.2,3.7C824.5,58,845.2,66.2,845.1,95.6L845.1,95.6
	z"/>
</svg>
